<?xml version="1.0" standalone="no"?>
<!DOCTYPE svg PUBLIC "-//W3C//DTD SVG 20010904//EN"
 "http://www.w3.org/TR/2001/REC-SVG-20010904/DTD/svg10.dtd">
<svg version="1.0" xmlns="http://www.w3.org/2000/svg"
 width="50.000000pt" height="50.000000pt" viewBox="0 0 200.000000 200.000000"
 preserveAspectRatio="xMidYMid meet">

<g transform="translate(0.000000,200.000000) scale(0.100000,-0.100000)"
fill="#000000" stroke="none">
<path d="M885 1650 c-3 -5 1 -10 10 -10 9 0 13 5 10 10 -3 6 -8 10 -10 10 -2
0 -7 -4 -10 -10z"/>
<path d="M1030 1652 c0 -4 10 -9 22 -9 18 -2 20 0 8 7 -18 12 -30 13 -30 2z"/>
<path d="M840 1640 c8 -5 20 -10 25 -10 6 0 3 5 -5 10 -8 5 -19 10 -25 10 -5
0 -3 -5 5 -10z"/>
<path d="M784 1628 c-4 -5 -3 -12 0 -15 3 -4 6 -1 6 6 0 7 4 10 9 6 5 -3 12
-2 15 3 3 5 -2 9 -10 9 -8 0 -17 -4 -20 -9z"/>
<path d="M1125 1630 c-3 -5 -1 -10 4 -10 6 0 11 5 11 10 0 6 -2 10 -4 10 -3 0
-8 -4 -11 -10z"/>
<path d="M749 1613 c-13 -16 -12 -17 4 -4 9 7 17 15 17 17 0 8 -8 3 -21 -13z"/>
<path d="M1155 1620 c-3 -5 -2 -10 4 -10 5 0 13 5 16 10 3 6 2 10 -4 10 -5 0
-13 -4 -16 -10z"/>
<path d="M1185 1611 c-6 -11 13 -26 22 -17 4 3 1 6 -6 6 -7 0 -9 5 -6 10 3 6
4 10 1 10 -3 0 -7 -4 -11 -9z"/>
<path d="M710 1600 c-13 -8 -12 -10 3 -10 9 0 17 5 17 10 0 12 -1 12 -20 0z"/>
<path d="M670 1575 c-10 -12 -8 -13 10 -10 29 6 34 11 16 18 -8 3 -20 0 -26
-8z"/>
<path d="M1245 1581 c-3 -5 -2 -12 3 -15 5 -3 9 1 9 9 0 17 -3 19 -12 6z"/>
<path d="M1314 1528 c-4 -7 -4 -10 1 -6 4 4 15 2 24 -5 14 -11 14 -10 2 6 -16
20 -18 21 -27 5z"/>
<path d="M576 1501 c-4 -5 -2 -12 3 -15 5 -4 12 -2 15 3 4 5 2 12 -3 15 -5 4
-12 2 -15 -3z"/>
<path d="M1363 1485 c0 -8 4 -12 9 -9 5 3 6 10 3 15 -9 13 -12 11 -12 -6z"/>
<path d="M520 1438 c-13 -18 -17 -27 -8 -21 8 7 19 9 23 5 5 -4 5 -1 1 6 -4 6
-2 12 4 12 6 0 9 4 6 9 -4 5 0 12 6 14 7 3 8 6 2 6 -5 1 -21 -14 -34 -31z"/>
<path d="M1244 1456 c-3 -8 -12 -12 -19 -10 -7 3 -15 1 -19 -4 -3 -5 4 -8 16
-7 17 1 50 35 33 35 -3 0 -8 -6 -11 -14z"/>
<path d="M1278 1458 c-5 -11 -2 -15 10 -14 9 2 18 9 20 17 3 12 2 12 -6 0 -8
-11 -10 -11 -14 0 -3 10 -6 9 -10 -3z"/>
<path d="M1323 1455 c0 -8 4 -12 9 -9 4 3 8 9 8 15 0 5 -4 9 -8 9 -5 0 -9 -7
-9 -15z"/>
<path d="M1390 1461 c0 -6 4 -13 10 -16 6 -3 7 1 4 9 -7 18 -14 21 -14 7z"/>
<path d="M1360 1442 c6 -12 8 -27 5 -32 -3 -6 -1 -10 4 -10 16 0 13 23 -5 46
-14 18 -15 18 -4 -4z"/>
<path d="M1316 1422 c-3 -5 1 -9 9 -9 8 0 12 4 9 9 -3 4 -7 8 -9 8 -2 0 -6 -4
-9 -8z"/>
<path d="M1167 1397 c-14 -21 -13 -23 4 -24 10 -1 21 2 24 8 4 5 -2 6 -12 2
-17 -6 -17 -5 1 15 11 12 14 22 9 22 -6 0 -17 -10 -26 -23z"/>
<path d="M1420 1406 c0 -20 17 -29 26 -15 5 8 3 9 -6 4 -10 -6 -12 -4 -7 8 3
10 2 17 -3 17 -6 0 -10 -6 -10 -14z"/>
<path d="M1270 1390 c-9 -6 -10 -10 -3 -10 6 0 15 5 18 10 8 12 4 12 -15 0z"/>
<path d="M479 1378 c-5 -18 -6 -38 -1 -34 7 8 12 36 6 36 -2 0 -4 -1 -5 -2z"/>
<path d="M1300 1376 c0 -2 7 -7 16 -10 8 -3 12 -2 9 4 -6 10 -25 14 -25 6z"/>
<path d="M1361 1364 c0 -11 3 -14 6 -6 3 7 2 16 -1 19 -3 4 -6 -2 -5 -13z"/>
<path d="M1445 1371 c-3 -5 -2 -12 3 -15 5 -3 9 1 9 9 0 17 -3 19 -12 6z"/>
<path d="M1233 1348 c-22 -26 -37 -48 -30 -48 3 0 17 16 31 35 30 39 30 46 -1
13z"/>
<path d="M1185 1349 c-4 -6 -5 -12 -2 -15 2 -3 7 2 10 11 7 17 1 20 -8 4z"/>
<path d="M1259 1333 c-39 -47 -40 -50 -24 -57 10 -3 14 -2 10 5 -4 6 0 18 7
27 18 21 31 42 25 42 -2 0 -10 -8 -18 -17z"/>
<path d="M1312 1320 c0 -14 2 -19 5 -12 2 6 2 18 0 25 -3 6 -5 1 -5 -13z"/>
<path d="M1351 1330 c-1 -8 -8 -27 -15 -42 -9 -17 -11 -30 -5 -34 5 -3 9 -2 8
3 -1 4 3 21 10 37 6 16 10 34 7 40 -2 6 -5 4 -5 -4z"/>
<path d="M1470 1309 c0 -5 5 -7 10 -4 6 3 10 8 10 11 0 2 -4 4 -10 4 -5 0 -10
-5 -10 -11z"/>
<path d="M1120 1300 c0 -5 5 -10 10 -10 6 0 10 5 10 10 0 6 -4 10 -10 10 -5 0
-10 -4 -10 -10z"/>
<path d="M1182 1300 c4 -18 -56 -112 -66 -103 -3 3 -6 1 -6 -5 0 -25 18 -10
53 41 25 39 32 58 26 68 -8 12 -9 12 -7 -1z"/>
<path d="M444 1281 c4 -5 0 -11 -6 -14 -10 -3 -10 -8 1 -18 8 -8 11 -9 7 -2
-3 6 -2 14 4 18 13 8 13 25 -1 25 -5 0 -8 -4 -5 -9z"/>
<path d="M1487 1284 c-5 -6 -4 -16 10 -51 3 -10 5 -27 5 -38 l-2 -20 9 20 c5
11 6 25 3 30 -7 11 -12 32 -14 53 -1 14 -2 14 -11 6z"/>
<path d="M1067 1266 c-4 -10 -1 -13 8 -9 8 3 12 9 9 14 -7 12 -11 11 -17 -5z"/>
<path d="M241 1254 c0 -11 3 -14 6 -6 3 7 2 16 -1 19 -3 4 -6 -2 -5 -13z"/>
<path d="M1204 1258 c-4 -7 -14 -24 -22 -38 l-14 -25 19 24 c15 18 22 20 25
10 3 -8 5 -2 4 13 -1 32 -2 33 -12 16z"/>
<path d="M1290 1261 c0 -5 6 -14 14 -21 8 -6 12 -19 10 -28 -5 -15 -4 -15 6 0
8 14 6 22 -10 38 -11 11 -20 16 -20 11z"/>
<path d="M1111 1244 c0 -11 3 -14 6 -6 3 7 2 16 -1 19 -3 4 -6 -2 -5 -13z"/>
<path d="M1080 1241 c0 -7 -7 -11 -14 -8 -11 4 -13 1 -9 -10 4 -11 2 -14 -5
-9 -8 5 -10 2 -6 -8 5 -13 10 -11 26 10 11 14 18 28 14 31 -3 4 -6 1 -6 -6z"/>
<path d="M423 1213 c-3 -10 -8 -21 -10 -25 -2 -4 3 -5 11 -2 8 3 14 14 13 25
-2 24 -6 24 -14 2z"/>
<path d="M1253 1202 c10 -10 15 -21 12 -24 -3 -2 2 -5 10 -5 12 0 10 6 -7 24
-25 27 -39 32 -15 5z"/>
<path d="M1085 1189 c-4 -6 -5 -12 -2 -15 2 -3 7 2 10 11 7 17 1 20 -8 4z"/>
<path d="M240 1186 c0 -2 7 -7 16 -10 8 -3 12 -2 9 4 -6 10 -25 14 -25 6z"/>
<path d="M1181 1174 c0 -11 3 -14 6 -6 3 7 2 16 -1 19 -3 4 -6 -2 -5 -13z"/>
<path d="M307 1161 c-3 -13 4 -28 22 -43 l26 -23 -20 24 c-11 13 -19 32 -17
42 4 25 -4 25 -11 0z"/>
<path d="M1001 1138 c-15 -26 -19 -44 -13 -50 6 -6 12 -5 17 3 6 8 4 10 -5 4
-10 -6 -12 -4 -7 9 4 10 7 20 7 24 0 3 7 -3 16 -14 15 -19 15 -19 5 1 -6 13
-6 26 1 38 20 37 2 24 -21 -15z"/>
<path d="M410 1150 c0 -11 -4 -20 -10 -20 -5 0 -10 -10 -9 -22 l0 -23 10 23
c5 13 12 21 16 19 5 -3 9 6 9 19 1 13 -2 24 -7 24 -5 0 -9 -9 -9 -20z"/>
<path d="M1140 1150 c-6 -11 -8 -20 -6 -20 3 0 10 9 16 20 6 11 8 20 6 20 -3
0 -10 -9 -16 -20z"/>
<path d="M1502 1150 c-7 -11 -8 -20 -3 -20 5 0 11 -11 13 -25 6 -31 -9 -33
-22 -2 -8 20 -9 20 -9 2 -1 -35 35 -83 68 -90 54 -12 66 13 30 59 -21 27 -12
34 20 16 12 -6 21 -26 25 -54 7 -43 38 -96 56 -96 5 0 -1 10 -14 23 -22 22
-43 93 -31 105 10 10 46 -33 60 -74 10 -29 14 -33 15 -16 0 35 -17 61 -84 127
-34 33 -52 49 -41 36 l20 -24 -25 6 c-14 4 -31 7 -38 7 -7 0 -16 9 -20 20 -7
20 -7 20 -20 0z m67 -76 c26 -33 26 -44 3 -44 -23 0 -49 29 -49 53 0 25 22 21
46 -9z"/>
<path d="M1245 1150 c3 -5 8 -10 11 -10 2 0 4 5 4 10 0 6 -5 10 -11 10 -5 0
-7 -4 -4 -10z"/>
<path d="M1094 1135 c-5 -13 -9 -13 -23 -3 -14 12 -15 11 -2 -4 9 -12 10 -22
4 -30 -12 -17 -34 -68 -28 -68 2 0 17 27 34 60 17 33 28 60 26 60 -3 0 -8 -7
-11 -15z"/>
<path d="M1190 1140 c0 -5 5 -10 11 -10 5 0 7 5 4 10 -3 6 -8 10 -11 10 -2 0
-4 -4 -4 -10z"/>
<path d="M250 1126 c0 -2 7 -6 15 -10 8 -3 15 -1 15 4 0 6 -7 10 -15 10 -8 0
-15 -2 -15 -4z"/>
<path d="M462 1095 c0 -16 2 -22 5 -12 2 9 2 23 0 30 -3 6 -5 -1 -5 -18z"/>
<path d="M416 1095 c-3 -8 -3 -21 0 -28 3 -9 -6 -12 -33 -11 -29 1 -31 0 -8
-3 16 -3 35 -9 40 -13 7 -6 11 4 11 31 1 43 -1 47 -10 24z"/>
<path d="M1211 1097 c-6 -8 -8 -17 -4 -20 3 -4 0 -13 -7 -22 -7 -8 -10 -15 -7
-15 2 0 17 16 31 35 19 25 23 35 13 35 -8 0 -20 -6 -26 -13z"/>
<path d="M1106 1083 c-6 -14 -5 -15 5 -6 7 7 10 15 7 18 -3 3 -9 -2 -12 -12z"/>
<path d="M480 1085 c0 -5 5 -17 10 -25 5 -8 10 -10 10 -5 0 6 -5 17 -10 25 -5
8 -10 11 -10 5z"/>
<path d="M568 1059 c-5 -29 -4 -30 9 -14 11 16 13 17 13 3 0 -9 4 -20 10 -23
12 -7 2 22 -15 48 -11 16 -13 15 -17 -14z"/>
<path d="M969 1068 c-1 -7 -1 -16 0 -20 0 -5 -3 -8 -9 -8 -5 0 -10 -8 -10 -17
1 -16 2 -16 12 2 13 22 21 55 13 55 -3 0 -6 -6 -6 -12z"/>
<path d="M1003 1064 c4 -7 0 -17 -8 -24 -8 -7 -15 -18 -15 -24 0 -6 5 -3 11 7
6 9 14 15 19 12 11 -7 7 22 -5 32 -4 4 -5 3 -2 -3z"/>
<path d="M1086 1045 c-9 -26 -7 -32 5 -12 6 10 9 21 6 23 -2 3 -7 -2 -11 -11z"/>
<path d="M460 1042 c0 -6 6 -13 13 -16 6 -4 2 -4 -9 -2 -26 4 -52 -9 -40 -21
5 -4 11 -3 13 3 2 6 14 9 27 7 16 -3 25 1 30 13 4 10 4 15 0 11 -4 -4 -13 -2
-21 4 -8 8 -13 8 -13 1z"/>
<path d="M1134 1019 c-8 -14 13 -18 30 -6 16 12 16 13 -4 13 -12 0 -23 -4 -26
-7z"/>
<path d="M561 1004 c-1 -15 5 -20 19 -19 29 2 33 10 13 26 -11 9 -14 10 -9 2
4 -7 3 -13 -3 -13 -5 0 -12 6 -14 13 -3 6 -6 3 -6 -9z"/>
<path d="M1502 1010 c3 -8 1 -25 -3 -37 -5 -13 -6 -23 -4 -23 3 0 10 12 16 27
7 19 6 29 -2 37 -8 8 -10 7 -7 -4z"/>
<path d="M1067 1003 c-4 -3 -7 -11 -7 -17 0 -6 5 -5 12 2 6 6 9 14 7 17 -3 3
-9 2 -12 -2z"/>
<path d="M942 980 c0 -14 2 -19 5 -12 2 6 2 18 0 25 -3 6 -5 1 -5 -13z"/>
<path d="M1095 990 c3 -5 8 -10 11 -10 2 0 4 5 4 10 0 6 -5 10 -11 10 -5 0 -7
-4 -4 -10z"/>
<path d="M442 973 c12 -15 44 -17 52 -4 3 4 -7 6 -22 4 -21 -4 -24 -2 -12 6
12 8 11 10 -7 8 -17 -1 -19 -4 -11 -14z"/>
<path d="M525 970 c27 -12 43 -12 25 0 -8 5 -22 9 -30 9 -10 0 -8 -3 5 -9z"/>
<path d="M711 954 c0 -11 3 -14 6 -6 3 7 2 16 -1 19 -3 4 -6 -2 -5 -13z"/>
<path d="M1001 943 c-10 -26 -10 -27 4 -9 8 11 15 23 15 28 0 15 -7 8 -19 -19z"/>
<path d="M937 943 c-4 -3 -7 -22 -7 -41 0 -44 6 -39 13 11 5 39 5 41 -6 30z"/>
<path d="M1036 934 c-9 -24 -2 -26 12 -4 7 11 8 20 3 20 -5 0 -12 -7 -15 -16z"/>
<path d="M613 926 c1 -13 -6 -22 -23 -27 l-25 -7 28 -1 c15 -1 27 4 27 9 0 6
5 9 11 8 6 -2 14 3 17 11 3 10 0 12 -11 8 -9 -3 -18 -1 -21 6 -3 7 -4 3 -3 -7z"/>
<path d="M690 916 c0 -2 8 -10 18 -17 15 -13 16 -12 3 4 -13 16 -21 21 -21 13z"/>
<path d="M450 904 c0 -3 7 -12 15 -21 8 -8 12 -19 9 -25 -4 -7 -2 -8 4 -4 8 5
8 13 0 31 -10 22 -28 34 -28 19z"/>
<path d="M1475 900 c3 -5 8 -10 11 -10 2 0 4 5 4 10 0 6 -5 10 -11 10 -5 0 -7
-4 -4 -10z"/>
<path d="M1016 883 c-6 -14 -5 -15 5 -6 7 7 10 15 7 18 -3 3 -9 -2 -12 -12z"/>
<path d="M781 874 c0 -11 3 -14 6 -6 3 7 2 16 -1 19 -3 4 -6 -2 -5 -13z"/>
<path d="M1460 880 c0 -22 -2 -26 -20 -45 -18 -20 -18 -21 1 -44 10 -13 19
-19 19 -13 0 6 -7 17 -15 25 -12 13 -12 17 3 30 16 14 28 57 16 57 -2 0 -4 -4
-4 -10z"/>
<path d="M655 871 c-3 -5 0 -13 6 -17 7 -4 9 -3 5 4 -3 5 0 13 6 15 9 4 10 6
1 6 -6 1 -14 -3 -18 -8z"/>
<path d="M734 866 c11 -9 24 -16 30 -16 12 0 7 5 -24 19 -24 11 -24 11 -6 -3z"/>
<path d="M964 872 c-12 -8 -15 -44 -4 -37 6 4 21 45 17 45 -1 0 -7 -4 -13 -8z"/>
<path d="M1095 870 c3 -5 8 -10 11 -10 2 0 4 5 4 10 0 6 -5 10 -11 10 -5 0 -7
-4 -4 -10z"/>
<path d="M901 842 c0 -11 2 -12 6 -4 2 6 9 10 13 7 5 -3 11 -2 14 3 2 4 -4 9
-15 9 -12 1 -19 -4 -18 -15z"/>
<path d="M988 811 c-12 -38 -12 -48 -2 -48 7 0 11 4 8 9 -3 5 0 24 6 44 7 19
10 37 8 39 -2 3 -11 -17 -20 -44z"/>
<path d="M1055 850 c-3 -5 2 -10 12 -10 14 0 15 -2 4 -9 -7 -5 -9 -11 -4 -14
5 -3 15 4 22 16 8 12 10 19 6 15 -5 -4 -14 -3 -21 3 -8 7 -14 7 -19 -1z"/>
<path d="M488 839 c-3 -9 -17 -13 -42 -11 -86 8 -135 -49 -82 -95 30 -25 43
-28 66 -12 12 8 10 9 -8 4 -26 -7 -72 17 -72 39 0 26 36 46 81 46 55 0 138
-45 133 -73 -2 -14 0 -16 11 -7 8 7 19 9 25 5 11 -7 14 -26 3 -23 -11 3 -47
-10 -149 -53 -50 -22 -96 -39 -101 -39 -5 0 -17 16 -26 35 -20 43 -59 64 -82
45 -8 -7 -15 -17 -15 -22 0 -18 59 -68 80 -68 13 0 40 -21 71 -54 54 -59 101
-82 150 -71 39 9 55 42 41 84 -12 35 -13 35 22 21 32 -12 73 4 81 32 5 15 10
16 28 7 21 -10 21 -10 2 5 -39 30 -65 61 -60 73 2 7 0 13 -5 13 -15 0 -123 90
-136 113 -8 15 -13 16 -16 6z m164 -194 c2 -12 -7 -24 -25 -34 -26 -15 -30
-15 -67 7 -22 12 -40 20 -40 18 0 -3 10 -21 21 -41 18 -30 20 -41 11 -60 -13
-28 -50 -40 -89 -30 -27 6 -103 75 -103 91 0 5 35 21 78 35 42 15 102 36 132
47 51 19 55 19 66 3 7 -9 14 -25 16 -36z m-339 13 c25 -34 17 -45 -22 -28 -30
12 -46 35 -35 51 10 16 36 6 57 -23z"/>
<path d="M797 831 c-3 -11 1 -22 8 -24 8 -4 10 3 7 19 -5 29 -8 30 -15 5z"/>
<path d="M745 820 c12 -5 14 -9 6 -9 -8 -1 -12 -3 -9 -6 3 -3 13 -2 22 1 14 5
15 9 4 15 -7 5 -20 8 -28 8 -10 0 -8 -3 5 -9z"/>
<path d="M675 810 c-3 -5 1 -10 10 -10 9 0 13 5 10 10 -3 6 -8 10 -10 10 -2 0
-7 -4 -10 -10z"/>
<path d="M855 774 c14 -15 25 -32 25 -37 0 -6 3 -8 6 -4 7 7 -34 67 -46 67 -5
0 2 -12 15 -26z"/>
<path d="M1356 784 c-12 -32 -6 -71 17 -91 34 -31 44 -34 57 -18 11 13 10 14
-2 10 -20 -8 -45 23 -53 68 -6 30 -4 37 9 37 19 0 21 -11 5 -27 -8 -8 -8 -13
0 -18 6 -3 10 -2 9 3 -2 6 2 10 7 11 6 0 10 -7 10 -17 1 -26 14 -42 30 -36 13
5 13 8 0 21 -13 13 -17 25 -14 50 1 9 -29 21 -52 22 -9 1 -20 -6 -23 -15z"/>
<path d="M907 757 c3 -15 9 -27 14 -27 13 0 11 13 -5 35 -13 18 -14 18 -9 -8z"/>
<path d="M1015 761 c3 -16 -1 -21 -12 -19 -9 2 -17 -3 -19 -10 -1 -7 0 -8 2
-4 3 5 19 8 37 6 18 -1 26 0 19 3 -6 2 -10 8 -7 13 3 4 -2 13 -10 20 -12 10
-13 8 -10 -9z"/>
<path d="M1461 744 c0 -11 3 -14 6 -6 3 7 2 16 -1 19 -3 4 -6 -2 -5 -13z"/>
<path d="M961 724 c0 -11 3 -14 6 -6 3 7 2 16 -1 19 -3 4 -6 -2 -5 -13z"/>
<path d="M905 710 c3 -5 8 -10 11 -10 2 0 4 5 4 10 0 6 -5 10 -11 10 -5 0 -7
-4 -4 -10z"/>
<path d="M1137 713 c-11 -17 -9 -129 2 -156 6 -16 11 -34 11 -41 0 -8 7 -19
15 -26 13 -11 18 -11 28 0 9 10 9 11 -1 6 -20 -12 -36 43 -23 80 15 41 14 49
-4 34 -13 -11 -15 -5 -15 46 0 44 3 55 11 44 9 -12 10 -12 7 -1 -5 17 -24 26
-31 14z"/>
<path d="M1326 688 c3 -5 10 -6 15 -3 13 9 11 12 -6 12 -8 0 -12 -4 -9 -9z"/>
<path d="M895 681 c3 -5 1 -13 -5 -16 -6 -4 -8 -15 -5 -26 4 -11 2 -19 -4 -19
-6 0 -11 -5 -11 -12 0 -8 4 -8 14 2 19 20 31 80 16 80 -6 0 -9 -4 -5 -9z"/>
<path d="M1225 620 c-3 -5 -1 -10 4 -10 6 0 11 5 11 10 0 6 -2 10 -4 10 -3 0
-8 -4 -11 -10z"/>
<path d="M1190 599 c0 -5 5 -7 10 -4 6 3 10 8 10 11 0 2 -4 4 -10 4 -5 0 -10
-5 -10 -11z"/>
<path d="M761 595 c4 -3 16 -8 29 -10 12 -2 29 -10 36 -16 12 -10 18 -9 27 1
10 10 9 12 -5 7 -9 -3 -18 -2 -20 3 -2 5 -19 12 -38 15 -19 3 -32 3 -29 0z"/>
<path d="M1065 571 c-3 -6 3 -9 14 -8 11 0 17 5 15 9 -7 11 -22 10 -29 -1z"/>
<path d="M880 559 c0 -4 20 -7 45 -6 24 1 42 3 40 6 -8 8 -85 8 -85 0z"/>
<path d="M1020 560 c0 -6 7 -10 15 -10 8 0 15 2 15 4 0 2 -7 6 -15 10 -8 3
-15 1 -15 -4z"/>
<path d="M1212 545 c0 -16 2 -22 5 -12 2 9 2 23 0 30 -3 6 -5 -1 -5 -18z"/>
</g>
</svg>
